<svg width="150" height="150" viewBox="0 0 150 150" fill="none" xmlns="http://www.w3.org/2000/svg">
<path d="M75 0C116.421 0 150 33.5786 150 75C150 116.421 116.421 150 75 150C33.5786 150 0 116.421 0 75C0 33.5786 33.5786 0 75 0ZM26 88V117H31V102L36 113H40L45 102V117H50V88H45L38 105L31 88H26ZM59.5 88V93H63.5V112H59.5V117H72.5V112H68.5V93H72.5V88H59.5ZM82 88V117H87V99L97 117H102V88H97V106L87 88H82ZM109 88V93H117V117H122V93H130V88H109ZM75 10C63.402 10 54 19.402 54 31C54 42.598 63.402 52 75 52C86.598 52 96 42.598 96 31C96 19.402 86.598 10 75 10Z" fill="#8dbe2f"/>
</svg>
